<svg xmlns="http://www.w3.org/2000/svg" viewBox="0 0 1200 630">
  <defs>
    <pattern id="grid" width="30" height="30" patternUnits="userSpaceOnUse">
      <path d="M30 0H0V30" fill="none" stroke="#d4cbc0" stroke-width="1" opacity=".55"/>
    </pattern>
  </defs>
  <rect width="1200" height="630" fill="#f5f1e9"/>
  <rect width="1200" height="630" fill="url(#grid)"/>
  <rect x="0" y="0" width="18" height="630" fill="#d86d1f"/>
  <g transform="translate(72 62) scale(1.15)">
    <path d="M70 20A31 31 0 1 0 70 68" fill="none" stroke="#171717" stroke-width="6" stroke-linecap="round"/>
    <circle cx="70" cy="20" r="4.5" fill="#f5f1e9" stroke="#171717" stroke-width="3"/>
    <circle cx="70" cy="68" r="4.5" fill="#f5f1e9" stroke="#171717" stroke-width="3"/>
    <path d="M65 30A20 20 0 1 0 65 58" fill="none" stroke="#d86d1f" stroke-width="5" stroke-linecap="round"/>
    <circle cx="65" cy="30" r="4" fill="#f5f1e9" stroke="#d86d1f" stroke-width="3"/>
    <circle cx="65" cy="58" r="4" fill="#f5f1e9" stroke="#d86d1f" stroke-width="3"/>
    <rect x="42" y="36" width="16" height="16" fill="#171717"/>
    <circle cx="54" cy="40" r="2.2" fill="#d86d1f"/>
  </g>
  <text x="190" y="105" fill="#171717" font-family="Arial, sans-serif" font-size="31" font-weight="700" letter-spacing="4">CRITICALITY</text>
  <text x="192" y="137" fill="#a84613" font-family="monospace" font-size="14" font-weight="700" letter-spacing="7">CONSULTING</text>
  <text x="72" y="244" fill="#a84613" font-family="monospace" font-size="15" font-weight="700" letter-spacing="3">SEMICONDUCTOR DESIGN · FUNCTIONAL SAFETY · APPLIED AI</text>
  <text x="72" y="344" fill="#171717" font-family="Georgia, serif" font-size="72" font-weight="700">Functional safety,</text>
  <text x="72" y="426" fill="#a84613" font-family="Georgia, serif" font-size="72" font-style="italic">from safety concept</text>
  <text x="72" y="508" fill="#171717" font-family="Georgia, serif" font-size="72" font-weight="700">to trusted silicon.</text>
  <line x1="72" y1="566" x2="1128" y2="566" stroke="#171717" stroke-width="2"/>
  <text x="72" y="600" fill="#655d56" font-family="monospace" font-size="14" letter-spacing="2">INDEPENDENT TECHNICAL CONSULTANCY / UNITED KINGDOM</text>
</svg>
